<svg width="389.35" height="88.72128842959849" viewBox="0 0 350 79.75459342586225" class="looka-1j8o68f"><defs id="SvgjsDefs1019"><linearGradient id="SvgjsLinearGradient1024"><stop id="SvgjsStop1025" stop-color="#905e26" offset="0"></stop><stop id="SvgjsStop1026" stop-color="#f5ec9b" offset="0.5"></stop><stop id="SvgjsStop1027" stop-color="#905e26" offset="1"></stop></linearGradient><linearGradient id="SvgjsLinearGradient1028"><stop id="SvgjsStop1029" stop-color="#905e26" offset="0"></stop><stop id="SvgjsStop1030" stop-color="#f5ec9b" offset="0.5"></stop><stop id="SvgjsStop1031" stop-color="#905e26" offset="1"></stop></linearGradient></defs><g id="SvgjsG1020" featurekey="X3o6dM-0" transform="matrix(4.036596792857538,0,0,4.036596792857538,-1.3581083417965845,-28.902032420924183)" fill="url(#SvgjsLinearGradient1024)"><path d="M10.44 7.16 q0.36 0 0.93 0.04 t1.21 0.15 t1.3 0.3 t1.18 0.49 t0.85 0.72 t0.33 0.98 q0 0.76 -0.58 1.19 t-1.36 0.43 q-0.04 0 -0.18 -0.03 t-0.29 -0.08 t-0.26 -0.12 t-0.11 -0.17 q0 -0.2 0.23 -0.33 t0.5 -0.22 t0.5 -0.2 t0.23 -0.29 q0 -0.34 -0.49 -0.58 t-1.18 -0.39 t-1.45 -0.22 t-1.28 -0.07 q-0.5 0 -1.32 0.07 t-1.77 0.22 t-1.93 0.4 t-1.78 0.6 t-1.32 0.81 t-0.56 1.04 q-0.04 0.34 0.44 0.67 t1.26 0.64 t1.77 0.6 t1.99 0.56 t1.9 0.54 t1.5 0.51 q0.58 0.24 1.25 0.59 t1.25 0.8 t0.96 1.01 t0.38 1.24 q0 0.64 -0.32 1.09 t-0.85 0.74 t-1.21 0.42 t-1.4 0.13 q-1.62 0 -3.15 -0.31 t-2.97 -0.89 q-0.52 -0.2 -1.1 -0.51 t-1.06 -0.72 t-0.8 -0.9 t-0.32 -1.09 q0 -0.3 0.13 -0.6 t0.38 -0.54 t0.61 -0.39 t0.84 -0.15 q0.1 0 0.24 0.02 t0.24 0.08 t0.1 0.14 t-0.2 0.2 q-0.34 0.2 -0.61 0.34 t-0.46 0.28 t-0.28 0.29 t-0.09 0.35 q0 0.3 0.19 0.58 t0.47 0.52 t0.57 0.42 t0.51 0.28 q1.44 0.74 3.1 1.13 t3.34 0.39 q0.3 0 0.79 -0.02 t0.97 -0.14 t0.82 -0.36 t0.34 -0.7 q0 -0.6 -0.57 -1.09 t-1.4 -0.9 t-1.77 -0.71 t-1.66 -0.52 q-2.08 -0.6 -3.55 -1.06 t-2.38 -0.91 t-1.32 -0.93 t-0.37 -1.14 q0.06 -0.94 0.63 -1.66 t1.46 -1.24 t1.99 -0.87 t2.2 -0.56 t2.11 -0.3 t1.71 -0.09 z M15.74 11.38 q0 -0.48 0.26 -0.67 t0.56 -0.17 t0.53 0.22 t0.17 0.52 q-0.04 0.14 -0.09 0.7 t-0.13 1.36 t-0.15 1.76 t-0.13 1.9 q0.24 -0.52 0.53 -1.01 t0.45 -0.71 q0.16 -0.2 0.46 -0.31 t0.58 -0.1 t0.45 0.14 t0.07 0.41 q-0.06 0.18 -0.14 0.75 t-0.13 1.17 t-0.04 1.08 t0.11 0.48 q0.12 0 0.31 -0.28 t0.39 -0.67 t0.36 -0.8 t0.24 -0.67 q0.06 -0.18 0.19 -0.24 t0.25 -0.04 t0.2 0.13 t0.04 0.29 q-0.06 0.28 -0.26 0.79 t-0.49 1.04 t-0.66 0.94 t-0.75 0.49 q-0.42 0.08 -0.68 -0.08 t-0.4 -0.46 t-0.19 -0.7 t-0.04 -0.78 t0.06 -0.7 t0.11 -0.48 q-0.1 0.04 -0.28 0.45 t-0.37 0.92 t-0.35 1.01 t-0.18 0.74 q0 0.06 -0.02 0.08 l0 0.2 q0 0.28 -0.23 0.43 t-0.5 0.16 t-0.48 -0.12 t-0.17 -0.43 q0.04 -0.5 0.1 -1.29 t0.12 -1.69 t0.12 -1.83 t0.1 -1.73 t0.07 -1.39 t0.03 -0.81 z  M22.76 14.54 q0.28 0.06 0.49 0.26 t0.35 0.44 q0.16 -0.18 0.4 -0.2 t0.46 0.07 t0.36 0.28 t0.1 0.45 q-0.08 0.36 -0.15 0.9 t-0.09 1.04 t0.03 0.86 t0.21 0.36 q0.12 0 0.29 -0.31 t0.34 -0.73 t0.31 -0.84 t0.18 -0.64 q0.06 -0.2 0.2 -0.27 t0.27 -0.04 t0.22 0.15 t0.03 0.3 q-0.04 0.12 -0.13 0.45 t-0.23 0.73 t-0.33 0.83 t-0.44 0.76 t-0.56 0.51 t-0.67 0.08 q-0.58 -0.16 -0.84 -0.7 q-0.16 0.48 -0.44 0.87 t-0.72 0.57 q-0.42 0.14 -0.74 0.06 q-0.58 -0.16 -0.92 -0.72 t-0.46 -1.3 t-0.02 -1.54 t0.41 -1.44 t0.83 -1.01 t1.26 -0.23 z M23.28 16.56 q-0.04 -0.34 -0.15 -0.66 t-0.33 -0.36 q-0.32 -0.06 -0.57 0.23 t-0.41 0.77 t-0.23 1.05 t-0.04 1.08 t0.16 0.87 t0.39 0.4 t0.49 -0.28 t0.4 -0.82 t0.26 -1.11 t0.03 -1.17 z M26.660000000000004 16.740000000000002 q-0.04 0.16 -0.17 0.23 t-0.27 0.04 t-0.22 -0.14 t0 -0.29 l0.12 -0.34 q-0.18 -0.18 -0.2 -0.42 t0.08 -0.45 t0.29 -0.36 t0.43 -0.15 q0.42 0 0.46 0.31 t-0.12 0.69 q0.12 0.06 0.39 0.02 t0.51 -0.05 t0.4 0.09 t0.08 0.46 t-0.17 0.86 t-0.13 0.95 t0 0.77 t0.22 0.32 q0.12 0 0.31 -0.35 t0.39 -0.81 t0.36 -0.93 t0.2 -0.71 q0.04 -0.2 0.17 -0.28 t0.27 -0.07 t0.23 0.12 t0.07 0.31 q-0.02 0.1 -0.1 0.43 t-0.22 0.74 t-0.34 0.86 t-0.48 0.83 t-0.62 0.61 t-0.76 0.21 q-0.48 -0.02 -0.7 -0.43 t-0.28 -0.98 t0.03 -1.21 t0.25 -1.12 q-0.1 0.02 -0.2 0.02 l-0.2 0 q-0.06 0.1 -0.08 0.22 z M29.680000000000003 15.26 q0.08 -0.44 0.38 -0.69 t0.61 -0.34 t0.54 -0.02 t0.17 0.31 q-0.06 0.28 -0.14 0.76 t-0.14 0.98 t-0.1 0.95 t-0.04 0.65 q0.08 -0.28 0.2 -0.58 t0.25 -0.59 t0.27 -0.53 t0.26 -0.38 q0.14 -0.2 0.43 -0.31 t0.54 -0.11 t0.41 0.14 t0.06 0.4 q-0.04 0.12 -0.08 0.46 t-0.08 0.74 q0.12 -0.28 0.32 -0.62 t0.4 -0.65 t0.37 -0.57 t0.27 -0.38 q0.14 -0.2 0.42 -0.33 t0.54 -0.13 t0.44 0.13 t0.16 0.43 q-0.02 0.14 -0.07 0.48 t-0.13 0.78 t-0.15 0.92 t-0.12 0.87 t-0.06 0.65 t0.07 0.26 q0.12 0 0.32 -0.28 t0.39 -0.67 t0.36 -0.81 t0.25 -0.68 q0.06 -0.18 0.19 -0.25 t0.25 -0.04 t0.2 0.14 t0.04 0.29 q-0.06 0.28 -0.27 0.79 t-0.51 1.03 t-0.66 0.94 t-0.74 0.48 q-0.42 0.08 -0.67 -0.1 t-0.36 -0.52 t-0.13 -0.77 t0.02 -0.85 t0.1 -0.75 t0.12 -0.49 q-0.1 0.04 -0.3 0.38 t-0.41 0.75 t-0.39 0.8 t-0.24 0.53 l0 -0.02 q-0.04 0.12 -0.19 0.27 t-0.35 0.24 t-0.37 0.09 t-0.23 -0.2 t-0.08 -0.55 t-0.02 -0.68 t0.01 -0.6 t-0.01 -0.33 q-0.1 0.04 -0.22 0.36 t-0.25 0.72 t-0.23 0.82 t-0.14 0.66 q-0.04 0.26 -0.27 0.39 t-0.5 0.13 t-0.48 -0.14 t-0.19 -0.44 q0.02 -0.34 -0.01 -0.91 t-0.06 -1.19 t-0.03 -1.22 t0.06 -1 z M39.36000000000001 14.54 q0.28 0.06 0.49 0.26 t0.35 0.44 q0.16 -0.18 0.4 -0.2 t0.46 0.07 t0.36 0.28 t0.1 0.45 q-0.08 0.36 -0.15 0.9 t-0.09 1.04 t0.03 0.86 t0.21 0.36 q0.12 0 0.29 -0.31 t0.34 -0.73 t0.31 -0.84 t0.18 -0.64 q0.06 -0.2 0.2 -0.27 t0.27 -0.04 t0.22 0.15 t0.03 0.3 q-0.04 0.12 -0.13 0.45 t-0.23 0.73 t-0.33 0.83 t-0.44 0.76 t-0.56 0.51 t-0.67 0.08 q-0.58 -0.16 -0.84 -0.7 q-0.16 0.48 -0.44 0.87 t-0.72 0.57 q-0.42 0.14 -0.74 0.06 q-0.58 -0.16 -0.92 -0.72 t-0.46 -1.3 t-0.02 -1.54 t0.41 -1.44 t0.83 -1.01 t1.26 -0.23 z M39.88000000000001 16.56 q-0.04 -0.34 -0.15 -0.66 t-0.33 -0.36 q-0.32 -0.06 -0.57 0.23 t-0.41 0.77 t-0.23 1.05 t-0.04 1.08 t0.16 0.87 t0.39 0.4 t0.49 -0.28 t0.4 -0.82 t0.26 -1.11 t0.03 -1.17 z M51.32000000000001 21.22 q-0.68 -0.06 -1.42 -0.17 t-1.36 -0.26 t-1.02 -0.35 t-0.4 -0.44 t0.29 -0.38 t0.65 -0.22 q0.4 -0.08 0.94 -0.12 q0.36 0 0.72 0.07 t0.72 0.07 q1.92 0.26 3.91 0.34 t3.97 -0.2 q0.42 -0.06 1 -0.17 t1.12 -0.32 t0.92 -0.54 t0.42 -0.81 q0 -0.44 -0.3 -0.81 t-0.74 -0.64 t-0.93 -0.45 t-0.87 -0.26 q-0.48 -0.12 -1.14 -0.24 t-1.39 -0.22 t-1.5 -0.19 t-1.45 -0.13 l0 1 q0 0.38 -0.04 0.93 t-0.16 1.07 t-0.34 0.89 t-0.56 0.37 q-0.12 0 -0.18 -0.12 t-0.09 -0.29 t-0.04 -0.36 t-0.03 -0.33 q-0.16 -1.22 -0.26 -2.51 t0.06 -2.63 q0.02 -0.26 0.1 -0.58 t0.18 -0.61 t0.2 -0.48 t0.2 -0.19 q0.14 0 0.32 0.15 t0.33 0.42 t0.26 0.62 t0.11 0.77 q0 0.32 -0.03 0.62 t-0.03 0.62 q0.08 0.02 0.24 0.02 l0.74 0 q0.9 0 1.79 -0.06 t1.77 -0.22 q0.48 -0.08 1.15 -0.25 t1.3 -0.45 t1.07 -0.67 t0.44 -0.93 q0 -0.34 -0.27 -0.63 t-0.66 -0.51 t-0.83 -0.38 t-0.76 -0.24 q-0.7 -0.2 -1.47 -0.25 t-1.47 -0.05 q-2.36 0 -4.73 0.46 t-4.65 1.6 q-0.22 0.14 -0.47 0.11 t-0.25 -0.41 q0 -0.54 0.37 -0.97 t0.91 -0.76 t1.16 -0.55 t1.12 -0.34 q1.52 -0.4 3.19 -0.61 t3.75 -0.21 q0.56 0.02 1.27 0.09 t1.45 0.23 t1.45 0.43 t1.26 0.68 t0.88 0.98 t0.33 1.33 q0 0.58 -0.3 1.09 t-0.78 0.93 t-1.06 0.73 t-1.14 0.49 q0.56 0.14 1.1 0.36 t0.96 0.57 t0.67 0.84 t0.25 1.15 q0 0.86 -0.46 1.47 t-1.15 1.01 t-1.49 0.63 t-1.48 0.33 q-1.76 0.3 -3.61 0.28 t-3.75 -0.24 l0.02 0 z M66.54 14.54 q0.28 0.06 0.49 0.26 t0.35 0.44 q0.16 -0.18 0.4 -0.2 t0.46 0.07 t0.36 0.28 t0.1 0.45 q-0.08 0.36 -0.15 0.9 t-0.09 1.04 t0.03 0.86 t0.21 0.36 q0.12 0 0.29 -0.31 t0.34 -0.73 t0.31 -0.84 t0.18 -0.64 q0.06 -0.2 0.2 -0.27 t0.27 -0.04 t0.22 0.15 t0.03 0.3 q-0.04 0.12 -0.13 0.45 t-0.23 0.73 t-0.33 0.83 t-0.44 0.76 t-0.56 0.51 t-0.67 0.08 q-0.58 -0.16 -0.84 -0.7 q-0.16 0.48 -0.44 0.87 t-0.72 0.57 q-0.42 0.14 -0.74 0.06 q-0.58 -0.16 -0.92 -0.72 t-0.46 -1.3 t-0.02 -1.54 t0.41 -1.44 t0.83 -1.01 t1.26 -0.23 z M67.06 16.56 q-0.04 -0.34 -0.15 -0.66 t-0.33 -0.36 q-0.32 -0.06 -0.57 0.23 t-0.41 0.77 t-0.23 1.05 t-0.04 1.08 t0.16 0.87 t0.39 0.4 t0.49 -0.28 t0.4 -0.82 t0.26 -1.11 t0.03 -1.17 z M75 16.42 q0.08 -0.18 0.22 -0.23 t0.26 -0.01 t0.17 0.15 t-0.03 0.29 q-0.12 0.28 -0.33 0.82 t-0.5 1.09 t-0.69 0.97 t-0.9 0.46 q-0.6 0.04 -0.87 -0.3 t-0.36 -0.82 t-0.06 -0.96 t0.07 -0.7 q0 -0.1 -0.1 -0.1 t-0.25 0.06 t-0.3 0.17 t-0.23 0.23 q-0.02 0.76 -0.03 1.42 t0.01 1.1 q0 0.28 -0.21 0.41 t-0.48 0.12 t-0.48 -0.16 t-0.21 -0.45 q0.02 -0.5 0.05 -1.26 t0.05 -1.62 t0.04 -1.75 t0.03 -1.66 t0.01 -1.34 l0 -0.79 q-0.02 -0.38 0.23 -0.61 t0.55 -0.31 t0.54 0 t0.2 0.3 q-0.02 0.14 -0.06 0.66 t-0.08 1.28 t-0.08 1.67 t-0.06 1.83 q0.46 -0.56 0.85 -1.05 t0.47 -0.97 q0.02 -0.22 0.33 -0.34 t0.64 -0.12 t0.57 0.14 t0.12 0.4 q-0.14 0.3 -0.49 0.6 t-0.73 0.58 t-0.72 0.52 t-0.46 0.42 q0.14 -0.04 0.47 -0.15 t0.64 -0.14 t0.5 0.11 t0.05 0.6 q-0.12 0.36 -0.14 0.74 t0.02 0.67 t0.15 0.44 t0.27 0.05 q0.18 -0.12 0.36 -0.42 t0.36 -0.67 t0.34 -0.75 t0.28 -0.62 z M78.28 16.5 q-0.16 0.22 -0.4 0.36 t-0.52 0.23 t-0.57 0.13 t-0.51 0.06 q-0.06 0.42 -0.07 0.82 t0.04 0.72 t0.16 0.54 t0.31 0.28 q0.26 0.08 0.56 -0.09 t0.58 -0.47 t0.54 -0.7 t0.46 -0.77 t0.34 -0.68 t0.18 -0.45 q0.06 -0.18 0.19 -0.24 t0.25 -0.04 t0.2 0.13 t0.04 0.29 q-0.04 0.12 -0.14 0.47 t-0.29 0.79 t-0.46 0.91 t-0.65 0.86 t-0.87 0.65 t-1.09 0.26 q-0.72 0 -1.12 -0.5 t-0.54 -1.26 t-0.05 -1.63 t0.36 -1.63 t0.68 -1.26 t0.91 -0.5 q0.48 0 0.85 0.33 t0.57 0.77 t0.23 0.9 t-0.17 0.72 z M77.04 14.719999999999999 q-0.14 0.06 -0.3 0.51 t-0.3 1.09 q0.22 0 0.44 -0.05 t0.32 -0.21 q0.08 -0.12 0.1 -0.35 t-0.01 -0.47 t-0.1 -0.4 t-0.15 -0.12 z M80.00000000000001 16.740000000000002 q-0.04 0.16 -0.17 0.23 t-0.27 0.04 t-0.22 -0.14 t0 -0.29 l0.12 -0.34 q-0.18 -0.18 -0.2 -0.42 t0.08 -0.45 t0.29 -0.36 t0.43 -0.15 q0.42 0 0.46 0.31 t-0.12 0.69 q0.12 0.06 0.39 0.02 t0.51 -0.05 t0.4 0.09 t0.08 0.46 t-0.17 0.86 t-0.13 0.95 t0 0.77 t0.22 0.32 q0.12 0 0.31 -0.35 t0.39 -0.81 t0.36 -0.93 t0.2 -0.71 q0.04 -0.2 0.17 -0.28 t0.27 -0.07 t0.23 0.12 t0.07 0.31 q-0.02 0.1 -0.1 0.43 t-0.22 0.74 t-0.34 0.86 t-0.48 0.83 t-0.62 0.61 t-0.76 0.21 q-0.48 -0.02 -0.7 -0.43 t-0.28 -0.98 t0.03 -1.21 t0.25 -1.12 q-0.1 0.02 -0.2 0.02 l-0.2 0 q-0.06 0.1 -0.08 0.22 z M86.02000000000001 14.76 q0.26 -0.14 0.52 0 t0.4 0.39 t0.09 0.52 t-0.41 0.37 q-0.32 0.08 -0.67 0.16 t-0.66 0.14 t-0.53 0.11 t-0.28 0.05 q0.04 0 0.43 0.11 t0.83 0.36 t0.8 0.67 t0.36 1.06 q0 0.7 -0.48 1.11 t-1.12 0.55 q-0.4 0.06 -0.77 0 t-0.66 -0.25 t-0.47 -0.52 t-0.18 -0.79 q0 -0.38 0.25 -0.6 t0.54 -0.28 t0.52 0.06 t0.19 0.42 q-0.1 0.62 0.06 0.9 t0.32 0.28 q0.2 0 0.33 -0.14 t0.15 -0.37 t-0.08 -0.52 t-0.32 -0.59 q-0.18 -0.26 -0.45 -0.47 t-0.54 -0.36 t-0.53 -0.24 t-0.42 -0.13 q-0.18 -0.04 -0.27 -0.25 t-0.08 -0.44 t0.16 -0.42 t0.45 -0.19 q0.6 0 1.29 -0.19 t1.23 -0.51 z"></path></g><g id="SvgjsG1021" featurekey="RFbU7s-0" transform="matrix(0.8084314619464554,0,0,0.8084314619464554,80.43409928730402,63.34343536513346)" fill="url(#SvgjsLinearGradient1028)"><path d="M5.72 5.76 c2.38 0 3.96 1.52 4.66 2.9 l-1.94 1.14 c-0.74 -1.1 -1.54 -1.72 -2.72 -1.72 c-1.12 0 -1.92 0.66 -1.92 1.56 c0 0.86 0.52 1.36 1.72 1.8 l0.96 0.36 c2.98 1.06 4.28 2.36 4.28 4.36 c0 2.72 -2.58 4.14 -4.96 4.14 c-2.5 0 -4.46 -1.48 -5.1 -3.44 l2.02 -1.06 c0.5 1.12 1.44 2.12 3.08 2.12 c1.24 0 2.24 -0.6 2.24 -1.72 c0 -1.14 -0.72 -1.64 -2.28 -2.22 l-0.9 -0.32 c-2.08 -0.76 -3.66 -1.8 -3.66 -4.12 c0 -2.2 2.02 -3.78 4.52 -3.78 z M29.12 6 l0 14 l-2.62 0 l0 -14 l2.62 0 z M54.66 6 l2.62 0 l0 14 l-2 0 l-7.3 -9.22 l0 9.22 l-2.62 0 l0 -14 l2.02 0 l7.28 9.24 l0 -9.24 z M85.24 18.5 c-1.26 1.1 -2.9 1.7 -4.76 1.7 c-3.84 0 -7.26 -2.96 -7.26 -7.2 s3.42 -7.2 7.26 -7.2 c1.84 0 3.46 0.6 4.68 1.66 l-1.58 1.8 c-0.8 -0.6 -1.86 -1 -2.94 -1 c-2.6 0 -4.7 1.98 -4.7 4.74 s2.1 4.74 4.7 4.74 c1.1 0 2.2 -0.42 3.02 -1.08 z M103.6 17.58 l6.1 0 l0 2.42 l-6.5 0 l-2.22 0 l0 -14 l2.62 0 l5.92 0 l0 2.42 l-5.92 0 l0 3.36 l4.5 0 l0 2.36 l-4.5 0 l0 3.44 z M149.92 5.859999999999999 c2.94 0 4.72 2.02 4.72 4.28 c0 1.96 -1.02 2.94 -3.54 5.96 l-1.36 1.62 l4.9 0 l0 2.28 l-9.48 0 l0 -0.38 l3.58 -4.28 c2.62 -3.12 3.22 -3.86 3.22 -5.08 c0 -1.62 -1.2 -2.08 -2.04 -2.08 c-0.92 0 -2.04 0.54 -2.04 2.26 l0 0.36 l-2.68 0 l0 -0.36 c0 -2.48 1.68 -4.58 4.72 -4.58 z M175.98 5.800000000000001 c3.14 0 5.7 2.44 5.7 7.2 c0 4.78 -2.56 7.2 -5.7 7.2 c-3.1 0 -5.7 -2.42 -5.7 -7.2 c0 -4.76 2.6 -7.2 5.7 -7.2 z M175.98 8.04 c-2.42 0 -3.2 2.54 -3.2 4.96 c0 2.44 0.78 4.94 3.2 4.94 s3.22 -2.5 3.22 -4.94 c0 -2.42 -0.8 -4.96 -3.22 -4.96 z M202.05999999999997 5.859999999999999 c2.94 0 4.72 2.02 4.72 4.28 c0 1.96 -1.02 2.94 -3.54 5.96 l-1.36 1.62 l4.9 0 l0 2.28 l-9.48 0 l0 -0.38 l3.58 -4.28 c2.62 -3.12 3.22 -3.86 3.22 -5.08 c0 -1.62 -1.2 -2.08 -2.04 -2.08 c-0.92 0 -2.04 0.54 -2.04 2.26 l0 0.36 l-2.68 0 l0 -0.36 c0 -2.48 1.68 -4.58 4.72 -4.58 z M228.11999999999998 5.800000000000001 c3.14 0 5.7 2.44 5.7 7.2 c0 4.78 -2.56 7.2 -5.7 7.2 c-3.1 0 -5.7 -2.42 -5.7 -7.2 c0 -4.76 2.6 -7.2 5.7 -7.2 z M228.11999999999998 8.04 c-2.42 0 -3.2 2.54 -3.2 4.96 c0 2.44 0.78 4.94 3.2 4.94 s3.22 -2.5 3.22 -4.94 c0 -2.42 -0.8 -4.96 -3.22 -4.96 z"></path></g></svg>